# xmcd
#
# Track frame offsets:
#	150
#	13597
#	25915
#	44725
#	54275
#	65512
#	82552
#	96680
#	107800
#	118197
#	133485
#	146322
#
# Disc length: 2101 seconds
#
# Revision: 0
# Processed by: cddbd v1.5.1PL0 Copyright (c) Steve Scherf et al.
# Submitted via: dBpowerAMP V4.0
#
DISCID=a808330c
DTITLE=Bob Paisley and the Southern Grass - Back To The Blue Ridge
DYEAR=2000
DGENRE=Bluegrass
TTITLE0=Old Swingin Bridge
TTITLE1=Cardboard Mansion
TTITLE2=I Over Looked An Orchid
TTITLE3=Sugar In The Gourd
TTITLE4=No Letter In The Mail
TTITLE5=Somewhere Between
TTITLE6=Forty Years Of Trouble
TTITLE7=Silent Partner
TTITLE8=Brandywine Valley
TTITLE9=Take This Hammer
TTITLE10=Kentucky Waltz
TTITLE11=Uncle Ned
EXTD=
EXTT0=
EXTT1=
EXTT2=
EXTT3=
EXTT4=
EXTT5=
EXTT6=
EXTT7=
EXTT8=
EXTT9=
EXTT10=
EXTT11=
PLAYORDER=
